<mxfile host="app.diagrams.net" agent="Mozilla/5.0 (X11; Ubuntu; Linux x86_64; rv:138.0) Gecko/20100101 Firefox/138.0" version="27.0.9">
  <diagram name="Page-1" id="POKbRjyyL2bzoQBOzGFW">
    <mxGraphModel dx="1305" dy="795" grid="1" gridSize="10" guides="1" tooltips="1" connect="1" arrows="1" fold="1" page="1" pageScale="1" pageWidth="850" pageHeight="1100" math="0" shadow="0">
      <root>
        <mxCell id="0" />
        <mxCell id="1" parent="0" />
        <mxCell id="3dY2C-kk_1Szfm6JkUA_-1" value="&lt;b&gt;Expression Graph&lt;/b&gt;" style="rounded=0;whiteSpace=wrap;html=1;" parent="1" vertex="1">
          <mxGeometry x="330" y="60" width="140" height="60" as="geometry" />
        </mxCell>
        <mxCell id="3dY2C-kk_1Szfm6JkUA_-13" style="edgeStyle=orthogonalEdgeStyle;rounded=0;orthogonalLoop=1;jettySize=auto;html=1;exitX=0.5;exitY=1;exitDx=0;exitDy=0;entryX=0.5;entryY=0;entryDx=0;entryDy=0;strokeWidth=2;" parent="1" source="3dY2C-kk_1Szfm6JkUA_-2" target="3dY2C-kk_1Szfm6JkUA_-3" edge="1">
          <mxGeometry relative="1" as="geometry" />
        </mxCell>
        <mxCell id="3dY2C-kk_1Szfm6JkUA_-2" value="&lt;b&gt;Node Vector&lt;/b&gt;" style="rounded=0;whiteSpace=wrap;html=1;" parent="1" vertex="1">
          <mxGeometry x="330" y="210" width="140" height="60" as="geometry" />
        </mxCell>
        <mxCell id="3dY2C-kk_1Szfm6JkUA_-11" style="edgeStyle=orthogonalEdgeStyle;rounded=0;orthogonalLoop=1;jettySize=auto;html=1;exitX=0.5;exitY=1;exitDx=0;exitDy=0;entryX=0.5;entryY=0;entryDx=0;entryDy=0;strokeWidth=2;" parent="1" source="3dY2C-kk_1Szfm6JkUA_-3" target="3dY2C-kk_1Szfm6JkUA_-5" edge="1">
          <mxGeometry relative="1" as="geometry" />
        </mxCell>
        <mxCell id="3dY2C-kk_1Szfm6JkUA_-3" value="&lt;b&gt;Node Instance&lt;/b&gt;" style="rounded=0;whiteSpace=wrap;html=1;" parent="1" vertex="1">
          <mxGeometry x="330" y="320" width="140" height="60" as="geometry" />
        </mxCell>
        <mxCell id="3dY2C-kk_1Szfm6JkUA_-10" style="edgeStyle=orthogonalEdgeStyle;rounded=0;orthogonalLoop=1;jettySize=auto;html=1;exitX=0.5;exitY=0;exitDx=0;exitDy=0;entryX=0;entryY=0.5;entryDx=0;entryDy=0;strokeWidth=2;" parent="1" source="3dY2C-kk_1Szfm6JkUA_-4" target="3dY2C-kk_1Szfm6JkUA_-2" edge="1">
          <mxGeometry relative="1" as="geometry" />
        </mxCell>
        <mxCell id="3dY2C-kk_1Szfm6JkUA_-4" value="&lt;b&gt;Input Indexes&lt;/b&gt;" style="rounded=0;whiteSpace=wrap;html=1;" parent="1" vertex="1">
          <mxGeometry x="120" y="420" width="140" height="60" as="geometry" />
        </mxCell>
        <mxCell id="3dY2C-kk_1Szfm6JkUA_-20" style="edgeStyle=orthogonalEdgeStyle;rounded=0;orthogonalLoop=1;jettySize=auto;html=1;exitX=0.5;exitY=1;exitDx=0;exitDy=0;entryX=0.5;entryY=0;entryDx=0;entryDy=0;strokeWidth=2;" parent="1" source="3dY2C-kk_1Szfm6JkUA_-5" target="3dY2C-kk_1Szfm6JkUA_-14" edge="1">
          <mxGeometry relative="1" as="geometry" />
        </mxCell>
        <mxCell id="3dY2C-kk_1Szfm6JkUA_-5" value="&lt;b&gt;Node Value&lt;/b&gt;" style="rounded=0;whiteSpace=wrap;html=1;" parent="1" vertex="1">
          <mxGeometry x="330" y="420" width="140" height="60" as="geometry" />
        </mxCell>
        <mxCell id="3dY2C-kk_1Szfm6JkUA_-9" style="edgeStyle=orthogonalEdgeStyle;rounded=0;orthogonalLoop=1;jettySize=auto;html=1;exitX=0.5;exitY=0;exitDx=0;exitDy=0;entryX=1;entryY=0.5;entryDx=0;entryDy=0;strokeWidth=2;" parent="1" source="3dY2C-kk_1Szfm6JkUA_-6" target="3dY2C-kk_1Szfm6JkUA_-2" edge="1">
          <mxGeometry relative="1" as="geometry" />
        </mxCell>
        <mxCell id="3dY2C-kk_1Szfm6JkUA_-6" value="&lt;b&gt;Upstream Indexes&lt;/b&gt;" style="rounded=0;whiteSpace=wrap;html=1;" parent="1" vertex="1">
          <mxGeometry x="530" y="420" width="140" height="60" as="geometry" />
        </mxCell>
        <mxCell id="3dY2C-kk_1Szfm6JkUA_-18" style="edgeStyle=orthogonalEdgeStyle;rounded=0;orthogonalLoop=1;jettySize=auto;html=1;exitX=0.5;exitY=1;exitDx=0;exitDy=0;entryX=0.5;entryY=0;entryDx=0;entryDy=0;strokeWidth=2;" parent="1" source="3dY2C-kk_1Szfm6JkUA_-14" target="3dY2C-kk_1Szfm6JkUA_-16" edge="1">
          <mxGeometry relative="1" as="geometry" />
        </mxCell>
        <mxCell id="3dY2C-kk_1Szfm6JkUA_-19" style="edgeStyle=orthogonalEdgeStyle;rounded=0;orthogonalLoop=1;jettySize=auto;html=1;exitX=0.5;exitY=1;exitDx=0;exitDy=0;entryX=0.5;entryY=0;entryDx=0;entryDy=0;strokeWidth=2;" parent="1" source="3dY2C-kk_1Szfm6JkUA_-14" target="3dY2C-kk_1Szfm6JkUA_-17" edge="1">
          <mxGeometry relative="1" as="geometry" />
        </mxCell>
        <mxCell id="3dY2C-kk_1Szfm6JkUA_-14" value="&lt;b&gt;Behavior Trait&lt;/b&gt;" style="rounded=0;whiteSpace=wrap;html=1;" parent="1" vertex="1">
          <mxGeometry x="330" y="530" width="140" height="60" as="geometry" />
        </mxCell>
        <mxCell id="3dY2C-kk_1Szfm6JkUA_-16" value="&lt;b&gt;Forward&lt;/b&gt;" style="shape=step;perimeter=stepPerimeter;whiteSpace=wrap;html=1;fixedSize=1;" parent="1" vertex="1">
          <mxGeometry x="270" y="640" width="100" height="50" as="geometry" />
        </mxCell>
        <mxCell id="3dY2C-kk_1Szfm6JkUA_-17" value="&lt;b&gt;Backward&lt;/b&gt;" style="shape=step;perimeter=stepPerimeter;whiteSpace=wrap;html=1;fixedSize=1;" parent="1" vertex="1">
          <mxGeometry x="425" y="640" width="100" height="50" as="geometry" />
        </mxCell>
        <mxCell id="YpAaJxjV6s102Lq9Llkv-20" style="edgeStyle=orthogonalEdgeStyle;rounded=0;orthogonalLoop=1;jettySize=auto;html=1;exitX=0.5;exitY=1;exitDx=0;exitDy=0;strokeWidth=2;" edge="1" parent="1" source="YpAaJxjV6s102Lq9Llkv-2">
          <mxGeometry relative="1" as="geometry">
            <mxPoint x="400" y="210" as="targetPoint" />
          </mxGeometry>
        </mxCell>
        <mxCell id="YpAaJxjV6s102Lq9Llkv-21" style="edgeStyle=orthogonalEdgeStyle;rounded=0;orthogonalLoop=1;jettySize=auto;html=1;exitX=0.5;exitY=1;exitDx=0;exitDy=0;entryX=1;entryY=0.5;entryDx=0;entryDy=0;strokeWidth=2;" edge="1" parent="1" source="YpAaJxjV6s102Lq9Llkv-2" target="YpAaJxjV6s102Lq9Llkv-18">
          <mxGeometry relative="1" as="geometry" />
        </mxCell>
        <mxCell id="YpAaJxjV6s102Lq9Llkv-22" style="edgeStyle=orthogonalEdgeStyle;rounded=0;orthogonalLoop=1;jettySize=auto;html=1;exitX=0.5;exitY=1;exitDx=0;exitDy=0;entryX=0;entryY=0.5;entryDx=0;entryDy=0;strokeWidth=2;" edge="1" parent="1" source="YpAaJxjV6s102Lq9Llkv-2" target="YpAaJxjV6s102Lq9Llkv-19">
          <mxGeometry relative="1" as="geometry" />
        </mxCell>
        <mxCell id="YpAaJxjV6s102Lq9Llkv-2" value="&lt;b&gt;Expression Graph&lt;/b&gt;" style="rounded=0;whiteSpace=wrap;html=1;" vertex="1" parent="1">
          <mxGeometry x="330" y="60" width="140" height="60" as="geometry" />
        </mxCell>
        <mxCell id="YpAaJxjV6s102Lq9Llkv-3" style="edgeStyle=orthogonalEdgeStyle;rounded=0;orthogonalLoop=1;jettySize=auto;html=1;exitX=0.5;exitY=1;exitDx=0;exitDy=0;entryX=0.5;entryY=0;entryDx=0;entryDy=0;strokeWidth=2;" edge="1" parent="1" source="YpAaJxjV6s102Lq9Llkv-4" target="YpAaJxjV6s102Lq9Llkv-6">
          <mxGeometry relative="1" as="geometry" />
        </mxCell>
        <mxCell id="YpAaJxjV6s102Lq9Llkv-4" value="&lt;b&gt;Node Vector&lt;/b&gt;" style="rounded=0;whiteSpace=wrap;html=1;" vertex="1" parent="1">
          <mxGeometry x="330" y="210" width="140" height="60" as="geometry" />
        </mxCell>
        <mxCell id="YpAaJxjV6s102Lq9Llkv-5" style="edgeStyle=orthogonalEdgeStyle;rounded=0;orthogonalLoop=1;jettySize=auto;html=1;exitX=0.5;exitY=1;exitDx=0;exitDy=0;entryX=0.5;entryY=0;entryDx=0;entryDy=0;strokeWidth=2;" edge="1" parent="1" source="YpAaJxjV6s102Lq9Llkv-6" target="YpAaJxjV6s102Lq9Llkv-10">
          <mxGeometry relative="1" as="geometry" />
        </mxCell>
        <mxCell id="YpAaJxjV6s102Lq9Llkv-6" value="&lt;b&gt;Node Instance&lt;/b&gt;" style="rounded=0;whiteSpace=wrap;html=1;" vertex="1" parent="1">
          <mxGeometry x="330" y="320" width="140" height="60" as="geometry" />
        </mxCell>
        <mxCell id="YpAaJxjV6s102Lq9Llkv-7" style="edgeStyle=orthogonalEdgeStyle;rounded=0;orthogonalLoop=1;jettySize=auto;html=1;exitX=0.5;exitY=0;exitDx=0;exitDy=0;entryX=0;entryY=0.5;entryDx=0;entryDy=0;strokeWidth=2;" edge="1" parent="1" source="YpAaJxjV6s102Lq9Llkv-8" target="YpAaJxjV6s102Lq9Llkv-4">
          <mxGeometry relative="1" as="geometry" />
        </mxCell>
        <mxCell id="YpAaJxjV6s102Lq9Llkv-8" value="&lt;b&gt;Input Indexes&lt;/b&gt;" style="rounded=0;whiteSpace=wrap;html=1;" vertex="1" parent="1">
          <mxGeometry x="120" y="420" width="140" height="60" as="geometry" />
        </mxCell>
        <mxCell id="YpAaJxjV6s102Lq9Llkv-9" style="edgeStyle=orthogonalEdgeStyle;rounded=0;orthogonalLoop=1;jettySize=auto;html=1;exitX=0.5;exitY=1;exitDx=0;exitDy=0;entryX=0.5;entryY=0;entryDx=0;entryDy=0;strokeWidth=2;" edge="1" parent="1" source="YpAaJxjV6s102Lq9Llkv-10" target="YpAaJxjV6s102Lq9Llkv-15">
          <mxGeometry relative="1" as="geometry" />
        </mxCell>
        <mxCell id="YpAaJxjV6s102Lq9Llkv-10" value="&lt;b&gt;Node Value&lt;/b&gt;" style="rounded=0;whiteSpace=wrap;html=1;" vertex="1" parent="1">
          <mxGeometry x="330" y="420" width="140" height="60" as="geometry" />
        </mxCell>
        <mxCell id="YpAaJxjV6s102Lq9Llkv-11" style="edgeStyle=orthogonalEdgeStyle;rounded=0;orthogonalLoop=1;jettySize=auto;html=1;exitX=0.5;exitY=0;exitDx=0;exitDy=0;entryX=1;entryY=0.5;entryDx=0;entryDy=0;strokeWidth=2;" edge="1" parent="1" source="YpAaJxjV6s102Lq9Llkv-12" target="YpAaJxjV6s102Lq9Llkv-4">
          <mxGeometry relative="1" as="geometry" />
        </mxCell>
        <mxCell id="YpAaJxjV6s102Lq9Llkv-12" value="&lt;b&gt;Upstream Indexes&lt;/b&gt;" style="rounded=0;whiteSpace=wrap;html=1;" vertex="1" parent="1">
          <mxGeometry x="530" y="420" width="140" height="60" as="geometry" />
        </mxCell>
        <mxCell id="YpAaJxjV6s102Lq9Llkv-13" style="edgeStyle=orthogonalEdgeStyle;rounded=0;orthogonalLoop=1;jettySize=auto;html=1;exitX=0.5;exitY=1;exitDx=0;exitDy=0;entryX=0.5;entryY=0;entryDx=0;entryDy=0;strokeWidth=2;" edge="1" parent="1" source="YpAaJxjV6s102Lq9Llkv-15" target="YpAaJxjV6s102Lq9Llkv-16">
          <mxGeometry relative="1" as="geometry" />
        </mxCell>
        <mxCell id="YpAaJxjV6s102Lq9Llkv-14" style="edgeStyle=orthogonalEdgeStyle;rounded=0;orthogonalLoop=1;jettySize=auto;html=1;exitX=0.5;exitY=1;exitDx=0;exitDy=0;entryX=0.5;entryY=0;entryDx=0;entryDy=0;strokeWidth=2;" edge="1" parent="1" source="YpAaJxjV6s102Lq9Llkv-15" target="YpAaJxjV6s102Lq9Llkv-17">
          <mxGeometry relative="1" as="geometry" />
        </mxCell>
        <mxCell id="YpAaJxjV6s102Lq9Llkv-15" value="&lt;b&gt;Behavior Trait&lt;/b&gt;" style="rounded=0;whiteSpace=wrap;html=1;" vertex="1" parent="1">
          <mxGeometry x="330" y="530" width="140" height="60" as="geometry" />
        </mxCell>
        <mxCell id="YpAaJxjV6s102Lq9Llkv-16" value="&lt;b&gt;Forward&lt;/b&gt;" style="shape=step;perimeter=stepPerimeter;whiteSpace=wrap;html=1;fixedSize=1;" vertex="1" parent="1">
          <mxGeometry x="270" y="640" width="100" height="50" as="geometry" />
        </mxCell>
        <mxCell id="YpAaJxjV6s102Lq9Llkv-17" value="&lt;b&gt;Backward&lt;/b&gt;" style="shape=step;perimeter=stepPerimeter;whiteSpace=wrap;html=1;fixedSize=1;" vertex="1" parent="1">
          <mxGeometry x="425" y="640" width="100" height="50" as="geometry" />
        </mxCell>
        <mxCell id="YpAaJxjV6s102Lq9Llkv-18" value="&lt;b&gt;Path Vector&lt;/b&gt;" style="rounded=0;whiteSpace=wrap;html=1;" vertex="1" parent="1">
          <mxGeometry x="150" y="130" width="140" height="60" as="geometry" />
        </mxCell>
        <mxCell id="YpAaJxjV6s102Lq9Llkv-19" value="&lt;b&gt;Current Node Index&lt;/b&gt;" style="rounded=0;whiteSpace=wrap;html=1;" vertex="1" parent="1">
          <mxGeometry x="510" y="130" width="140" height="60" as="geometry" />
        </mxCell>
      </root>
    </mxGraphModel>
  </diagram>
</mxfile>
